<?xml version="1.0" encoding="UTF-8"?>
<svg xmlns="http://www.w3.org/2000/svg" xmlns:xlink="http://www.w3.org/1999/xlink" width="109px" height="85px" viewBox="0 0 108 85" version="1.1">
<g id="surface1">
<path style=" stroke:none;fill-rule:nonzero;fill:rgb(100%,100%,100%);fill-opacity:1;" d="M 83.972656 39.441406 L 83.972656 21.699219 C 83.972656 21.699219 84.128906 18.429688 84.15625 18.339844 C 84.1875 18.25 85.722656 17.261719 85.722656 17.261719 L 102.886719 17.109375 C 102.886719 17.109375 106.511719 17.878906 106.542969 18.03125 C 106.570312 18.1875 107 19.449219 107.035156 19.542969 C 107.066406 19.632812 107.003906 32.789062 106.878906 33.128906 C 106.757812 33.46875 106.175781 35.285156 106.175781 35.285156 C 106.175781 35.285156 105.5 36.054688 105.222656 36.023438 C 104.945312 35.996094 100.128906 35.933594 100.128906 35.933594 L 88.921875 35.6875 L 86.832031 36.210938 L 83.976562 39.445312 Z M 83.972656 39.441406 "/>
<path style=" stroke:none;fill-rule:nonzero;fill:rgb(100%,100%,100%);fill-opacity:1;" d="M 33.585938 36.265625 L 33.585938 3.273438 L 32.789062 1.917969 L 31.222656 1.296875 L 5.03125 1.296875 L 3.066406 2.195312 L 2.21875 3.972656 L 2.574219 35.457031 L 3.035156 37.796875 L 4.261719 38.582031 C 4.261719 38.582031 5.765625 38.953125 5.890625 38.953125 C 6.011719 38.953125 27.382812 38.707031 28.089844 38.769531 C 28.796875 38.832031 31.925781 38.707031 32.113281 38.644531 C 32.300781 38.582031 33.585938 37.226562 33.585938 37.226562 Z M 33.585938 36.265625 "/>
<path style=" stroke:none;fill-rule:nonzero;fill:rgb(100%,100%,100%);fill-opacity:1;" d="M 33.125 33.925781 L 39.171875 33.925781 L 32.941406 28.742188 Z M 33.125 33.925781 "/>
<path style=" stroke:none;fill-rule:nonzero;fill:rgb(66.27451%,81.568627%,100%);fill-opacity:1;" d="M 28.332031 31.941406 L 7.394531 31.941406 C 6.425781 31.941406 5.640625 32.726562 5.640625 33.699219 C 5.640625 34.667969 6.425781 35.457031 7.394531 35.457031 L 28.332031 35.457031 C 29.300781 35.457031 30.082031 34.667969 30.082031 33.699219 C 30.082031 32.726562 29.300781 31.941406 28.332031 31.941406 Z M 28.332031 31.941406 "/>
<path style=" stroke:none;fill-rule:nonzero;fill:rgb(34.117647%,59.607843%,96.862745%);fill-opacity:1;" d="M 92.667969 26.554688 L 89.402344 26.554688 L 89.402344 27.5 L 92.667969 27.5 Z M 92.667969 26.554688 "/>
<path style=" stroke:none;fill-rule:nonzero;fill:rgb(34.117647%,59.607843%,96.862745%);fill-opacity:1;" d="M 98.933594 21.949219 L 97.621094 23.796875 L 98.386719 24.347656 L 99.699219 22.496094 Z M 98.933594 21.949219 "/>
<path style=" stroke:none;fill-rule:nonzero;fill:rgb(51.372549%,71.764706%,100%);fill-opacity:1;" d="M 96.167969 31.148438 C 93.90625 31.148438 92.066406 29.300781 92.066406 27.03125 C 92.066406 24.757812 93.90625 22.914062 96.167969 22.914062 C 98.433594 22.914062 100.273438 24.757812 100.273438 27.03125 C 100.273438 29.300781 98.433594 31.148438 96.167969 31.148438 Z M 96.167969 23.855469 C 94.425781 23.855469 93.003906 25.277344 93.003906 27.03125 C 93.003906 28.78125 94.425781 30.207031 96.167969 30.207031 C 97.914062 30.207031 99.335938 28.78125 99.335938 27.03125 C 99.335938 25.277344 97.914062 23.855469 96.167969 23.855469 Z M 96.167969 23.855469 "/>
<path style=" stroke:none;fill-rule:nonzero;fill:rgb(100%,81.960784%,29.803922%);fill-opacity:1;" d="M 87.640625 28.800781 C 88.589844 28.800781 89.359375 28.03125 89.359375 27.078125 C 89.359375 26.128906 88.589844 25.359375 87.640625 25.359375 C 86.695312 25.359375 85.925781 26.128906 85.925781 27.078125 C 85.925781 28.03125 86.695312 28.800781 87.640625 28.800781 Z M 87.640625 28.800781 "/>
<path style=" stroke:none;fill-rule:nonzero;fill:rgb(100%,81.960784%,29.803922%);fill-opacity:1;" d="M 99.886719 22.605469 C 100.582031 22.605469 101.148438 22.039062 101.148438 21.339844 C 101.148438 20.636719 100.582031 20.070312 99.886719 20.070312 C 99.1875 20.070312 98.625 20.636719 98.625 21.339844 C 98.625 22.039062 99.1875 22.605469 99.886719 22.605469 Z M 99.886719 22.605469 "/>
<path style=" stroke:none;fill-rule:nonzero;fill:rgb(56.862745%,90.196078%,94.117647%);fill-opacity:1;" d="M 101.210938 32.40625 C 101.90625 32.40625 102.472656 31.835938 102.472656 31.136719 C 102.472656 30.4375 101.90625 29.871094 101.210938 29.871094 C 100.511719 29.871094 99.949219 30.4375 99.949219 31.136719 C 99.949219 31.835938 100.511719 32.40625 101.210938 32.40625 Z M 101.210938 32.40625 "/>
<path style=" stroke:none;fill-rule:nonzero;fill:rgb(100%,70.588235%,0%);fill-opacity:1;" d="M 26.894531 48 C 27.042969 48.148438 27.042969 48.386719 26.894531 48.535156 C 26.820312 48.609375 26.726562 48.648438 26.628906 48.648438 C 26.53125 48.648438 26.4375 48.609375 26.363281 48.535156 L 25.710938 47.882812 L 25.0625 48.535156 C 24.988281 48.609375 24.894531 48.648438 24.796875 48.648438 C 24.699219 48.648438 24.601562 48.609375 24.527344 48.535156 C 24.382812 48.386719 24.382812 48.148438 24.527344 48 L 25.175781 47.351562 L 24.527344 46.699219 C 24.382812 46.550781 24.382812 46.3125 24.527344 46.164062 C 24.675781 46.019531 24.914062 46.019531 25.058594 46.164062 L 25.707031 46.816406 L 26.359375 46.164062 C 26.503906 46.019531 26.742188 46.019531 26.890625 46.164062 C 27.035156 46.3125 27.035156 46.550781 26.890625 46.699219 L 26.242188 47.351562 L 26.890625 48 Z M 26.894531 48 "/>
<path style=" stroke:none;fill-rule:nonzero;fill:rgb(100%,81.960784%,29.803922%);fill-opacity:1;" d="M 30.082031 26.730469 L 6.328125 26.730469 L 6.328125 27.570312 L 30.082031 27.570312 Z M 30.082031 26.730469 "/>
<path style=" stroke:none;fill-rule:nonzero;fill:rgb(100%,81.960784%,29.803922%);fill-opacity:1;" d="M 30.082031 28.601562 L 6.328125 28.601562 L 6.328125 29.441406 L 30.082031 29.441406 Z M 30.082031 28.601562 "/>
<path style=" stroke:none;fill-rule:nonzero;fill:rgb(100%,100%,100%);fill-opacity:1;" d="M 13.539062 34.46875 C 13.964844 34.46875 14.304688 34.121094 14.304688 33.699219 C 14.304688 33.273438 13.964844 32.929688 13.539062 32.929688 C 13.117188 32.929688 12.773438 33.273438 12.773438 33.699219 C 12.773438 34.121094 13.117188 34.46875 13.539062 34.46875 Z M 13.539062 34.46875 "/>
<path style=" stroke:none;fill-rule:nonzero;fill:rgb(100%,100%,100%);fill-opacity:1;" d="M 17.921875 34.46875 C 18.34375 34.46875 18.6875 34.121094 18.6875 33.699219 C 18.6875 33.273438 18.34375 32.929688 17.921875 32.929688 C 17.496094 32.929688 17.15625 33.273438 17.15625 33.699219 C 17.15625 34.121094 17.496094 34.46875 17.921875 34.46875 Z M 17.921875 34.46875 "/>
<path style=" stroke:none;fill-rule:nonzero;fill:rgb(100%,100%,100%);fill-opacity:1;" d="M 22.304688 34.46875 C 22.726562 34.46875 23.070312 34.121094 23.070312 33.699219 C 23.070312 33.273438 22.726562 32.929688 22.304688 32.929688 C 21.878906 32.929688 21.535156 33.273438 21.535156 33.699219 C 21.535156 34.121094 21.878906 34.46875 22.304688 34.46875 Z M 22.304688 34.46875 "/>
<path style=" stroke:none;fill-rule:nonzero;fill:rgb(51.372549%,71.764706%,100%);fill-opacity:1;" d="M 12.953125 25.253906 L 5.984375 25.253906 C 5.792969 25.253906 5.640625 25.097656 5.640625 24.910156 L 5.640625 19.75 C 5.640625 19.5625 5.792969 19.40625 5.984375 19.40625 L 12.953125 19.40625 C 13.140625 19.40625 13.296875 19.5625 13.296875 19.75 L 13.296875 24.910156 C 13.296875 25.097656 13.140625 25.253906 12.953125 25.253906 Z M 6.328125 24.566406 L 12.609375 24.566406 L 12.609375 20.09375 L 6.328125 20.09375 Z M 6.328125 24.566406 "/>
<path style=" stroke:none;fill-rule:nonzero;fill:rgb(100%,70.588235%,0%);fill-opacity:1;" d="M 9.46875 24.023438 C 9.769531 24.023438 10.011719 23.78125 10.011719 23.480469 C 10.011719 23.175781 9.769531 22.933594 9.46875 22.933594 C 9.167969 22.933594 8.921875 23.175781 8.921875 23.480469 C 8.921875 23.78125 9.167969 24.023438 9.46875 24.023438 Z M 9.46875 24.023438 "/>
<path style=" stroke:none;fill-rule:nonzero;fill:rgb(100%,70.588235%,0%);fill-opacity:1;" d="M 9.84375 20.558594 L 9.089844 20.558594 L 9.089844 22.445312 L 9.84375 22.445312 Z M 9.84375 20.558594 "/>
<path style=" stroke:none;fill-rule:nonzero;fill:rgb(51.372549%,71.764706%,100%);fill-opacity:1;" d="M 39.199219 34.308594 L 34.261719 34.308594 C 34.03125 34.308594 33.84375 34.121094 33.84375 33.890625 C 33.84375 33.660156 34.035156 33.472656 34.261719 33.472656 L 38.042969 33.472656 L 33.390625 29.558594 C 33.292969 29.480469 33.238281 29.359375 33.238281 29.238281 L 33.238281 3.96875 C 33.238281 2.726562 32.230469 1.714844 30.992188 1.714844 C 30.757812 1.714844 30.574219 1.523438 30.574219 1.296875 C 30.574219 1.066406 30.761719 0.878906 30.992188 0.878906 C 32.695312 0.878906 34.078125 2.265625 34.078125 3.972656 L 34.078125 29.035156 L 39.46875 33.566406 C 39.601562 33.679688 39.652344 33.867188 39.589844 34.03125 C 39.53125 34.199219 39.371094 34.308594 39.195312 34.308594 Z M 39.199219 34.308594 "/>
<path style=" stroke:none;fill-rule:nonzero;fill:rgb(51.372549%,71.764706%,100%);fill-opacity:1;" d="M 30.992188 39.222656 L 5.300781 39.222656 C 3.597656 39.222656 2.214844 37.835938 2.214844 36.125 L 2.214844 3.96875 C 2.214844 2.261719 3.597656 0.875 5.300781 0.875 L 25.695312 0.875 C 25.925781 0.875 26.113281 1.0625 26.113281 1.292969 C 26.113281 1.523438 25.925781 1.710938 25.695312 1.710938 L 5.300781 1.710938 C 4.0625 1.710938 3.054688 2.722656 3.054688 3.96875 L 3.054688 36.125 C 3.054688 37.371094 4.0625 38.382812 5.300781 38.382812 L 30.992188 38.382812 C 32.230469 38.382812 33.238281 37.371094 33.238281 36.125 C 33.238281 35.894531 33.429688 35.707031 33.65625 35.707031 C 33.886719 35.707031 34.074219 35.898438 34.074219 36.125 C 34.074219 37.835938 32.691406 39.222656 30.988281 39.222656 Z M 30.992188 39.222656 "/>
<path style=" stroke:none;fill-rule:nonzero;fill:rgb(100%,70.588235%,0%);fill-opacity:1;" d="M 29.601562 1.949219 C 29.746094 2.09375 29.746094 2.332031 29.601562 2.480469 C 29.53125 2.554688 29.429688 2.59375 29.332031 2.59375 C 29.234375 2.59375 29.140625 2.554688 29.070312 2.480469 L 28.421875 1.828125 L 27.769531 2.480469 C 27.699219 2.554688 27.601562 2.59375 27.503906 2.59375 C 27.40625 2.59375 27.3125 2.554688 27.238281 2.480469 C 27.09375 2.332031 27.09375 2.09375 27.238281 1.949219 L 27.886719 1.296875 L 27.238281 0.644531 C 27.09375 0.496094 27.09375 0.257812 27.238281 0.113281 C 27.386719 -0.0351562 27.625 -0.0351562 27.769531 0.113281 L 28.421875 0.761719 L 29.070312 0.113281 C 29.214844 -0.0351562 29.453125 -0.0351562 29.601562 0.113281 C 29.746094 0.257812 29.746094 0.496094 29.601562 0.644531 L 28.953125 1.296875 Z M 29.601562 1.949219 "/>
<path style=" stroke:none;fill-rule:nonzero;fill:rgb(51.372549%,71.764706%,100%);fill-opacity:1;" d="M 85.679688 82.492188 L 61.03125 93.085938 L 28.539062 82.492188 C 20.683594 82.492188 15.257812 74.179688 18.164062 66.859375 C 23.316406 53.867188 34.125 42.609375 46.226562 37.792969 C 47.90625 41.203125 52.316406 44.050781 57.492188 44.050781 C 62.667969 44.050781 67.191406 41.351562 68.914062 38.003906 C 80.460938 42.78125 91.058594 54.082031 96.070312 66.882812 C 98.933594 74.207031 93.546875 79.589844 85.683594 82.488281 Z M 85.679688 82.492188 "/>
<path style=" stroke:none;fill-rule:nonzero;fill:rgb(100%,81.960784%,29.803922%);fill-opacity:1;" d="M 68.84375 38.851562 L 61.464844 58.304688 L 53.402344 58.304688 L 45.863281 38.347656 L 46.554688 38.007812 C 48.296875 40.820312 52.613281 43.667969 57.488281 43.667969 C 62.363281 43.667969 66.308594 41.648438 68.148438 38.519531 L 68.839844 38.851562 Z M 68.84375 38.851562 "/>
<path style=" stroke:none;fill-rule:nonzero;fill:rgb(100%,100%,100%);fill-opacity:1;" d="M 107.003906 77.875 L 103.59375 63.066406 C 102.257812 57.257812 97.105469 53.148438 91.164062 53.148438 C 87.210938 53.148438 83.480469 54.988281 81.066406 58.125 L 55.621094 91.199219 L 26.484375 82.320312 C 13.824219 78.460938 2.566406 91.441406 8.128906 103.488281 L 8.386719 104.050781 C 13.136719 114.335938 23.265625 120.832031 34.414062 120.832031 L 72.953125 120.832031 C 95.429688 120.832031 112.0625 99.851562 107.003906 77.878906 Z M 107.003906 77.875 "/>
<path style=" stroke:none;fill-rule:nonzero;fill:rgb(34.117647%,59.607843%,96.862745%);fill-opacity:1;" d="M 72.953125 121.25 L 34.414062 121.25 C 28.855469 121.25 23.449219 119.660156 18.773438 116.652344 C 14.085938 113.636719 10.367188 109.339844 8.007812 104.230469 L 7.746094 103.667969 C 5.101562 97.9375 6.027344 91.425781 10.152344 86.664062 C 14.285156 81.90625 20.585938 80.085938 26.601562 81.921875 L 55.460938 90.71875 L 80.730469 57.875 C 83.207031 54.65625 87.105469 52.730469 91.160156 52.730469 C 94.128906 52.730469 97.039062 53.753906 99.363281 55.605469 C 101.6875 57.457031 103.332031 60.078125 104 62.976562 L 107.410156 77.789062 C 109.847656 88.386719 107.375 99.347656 100.628906 107.859375 C 93.878906 116.371094 83.792969 121.253906 72.949219 121.253906 Z M 21.945312 82.054688 C 17.730469 82.054688 13.691406 83.867188 10.789062 87.210938 C 6.882812 91.71875 6.007812 97.886719 8.507812 103.308594 L 8.769531 103.871094 C 11.0625 108.839844 14.679688 113.011719 19.230469 115.941406 C 23.769531 118.863281 29.019531 120.410156 34.417969 120.410156 L 72.957031 120.410156 C 83.539062 120.410156 93.390625 115.644531 99.980469 107.332031 C 106.570312 99.023438 108.980469 88.320312 106.601562 77.972656 L 103.191406 63.160156 C 102.5625 60.445312 101.023438 57.992188 98.847656 56.257812 C 96.675781 54.523438 93.949219 53.566406 91.167969 53.566406 C 87.375 53.566406 83.722656 55.367188 81.402344 58.382812 L 55.777344 91.683594 L 26.367188 82.722656 C 24.898438 82.273438 23.414062 82.054688 21.949219 82.054688 Z M 21.945312 82.054688 "/>
<path style=" stroke:none;fill-rule:nonzero;fill:rgb(34.117647%,59.607843%,96.862745%);fill-opacity:1;" d="M 98.453125 75.144531 L 78.546875 114.90625 L 79.296875 115.28125 L 99.203125 75.523438 Z M 98.453125 75.144531 "/>
<path style=" stroke:none;fill-rule:nonzero;fill:rgb(100%,100%,100%);fill-opacity:1;" d="M 45.628906 82.125 L 38.179688 82.125 C 35.917969 82.125 34.082031 83.96875 34.082031 86.238281 C 34.082031 87.445312 34.984375 88.453125 36.175781 88.582031 L 37.066406 88.679688 C 38.457031 88.832031 39.667969 87.742188 39.667969 86.335938 L 45.902344 88.238281 Z M 45.628906 82.125 "/>
<path style=" stroke:none;fill-rule:nonzero;fill:rgb(34.117647%,59.607843%,96.862745%);fill-opacity:1;" d="M 37.320312 89.070312 C 37.222656 89.070312 37.125 89.066406 37.027344 89.054688 L 36.136719 88.957031 C 34.75 88.804688 33.707031 87.636719 33.707031 86.238281 C 33.707031 83.757812 35.714844 81.742188 38.183594 81.742188 L 45.992188 81.742188 L 46.300781 88.746094 L 40.003906 86.824219 C 39.894531 87.414062 39.59375 87.957031 39.140625 88.363281 C 38.636719 88.816406 37.988281 89.066406 37.320312 89.066406 Z M 38.183594 82.5 C 36.128906 82.5 34.457031 84.175781 34.457031 86.238281 C 34.457031 87.25 35.214844 88.097656 36.21875 88.207031 L 37.109375 88.304688 C 37.664062 88.363281 38.222656 88.183594 38.636719 87.8125 C 39.054688 87.433594 39.292969 86.898438 39.292969 86.335938 L 39.292969 85.828125 L 45.503906 87.71875 L 45.269531 82.5 L 38.179688 82.5 Z M 38.183594 82.5 "/>
<path style=" stroke:none;fill-rule:nonzero;fill:rgb(100%,100%,100%);fill-opacity:1;" d="M 60.351562 85.046875 L 56.496094 77.011719 C 56.257812 76.519531 55.589844 76.441406 55.25 76.871094 L 53.40625 79.199219 L 50.347656 79.199219 C 48.679688 79.199219 47.121094 80.011719 46.160156 81.371094 L 44.402344 83.859375 C 43.285156 85.449219 44.042969 87.671875 45.898438 88.234375 L 55.617188 91.199219 Z M 60.351562 85.046875 "/>
<path style=" stroke:none;fill-rule:nonzero;fill:rgb(0%,29.803922%,52.156863%);fill-opacity:1;" d="M 55.757812 91.632812 L 45.789062 88.597656 C 44.789062 88.292969 44.019531 87.546875 43.679688 86.554688 C 43.339844 85.558594 43.492188 84.5 44.097656 83.640625 L 45.851562 81.152344 C 46.882812 79.691406 48.5625 78.820312 50.347656 78.820312 L 53.226562 78.820312 L 54.953125 76.632812 C 55.195312 76.328125 55.566406 76.171875 55.953125 76.21875 C 56.335938 76.257812 56.667969 76.496094 56.832031 76.84375 L 60.789062 85.089844 L 55.753906 91.628906 Z M 50.351562 79.574219 C 48.8125 79.574219 47.359375 80.328125 46.46875 81.589844 L 44.714844 84.078125 C 44.25 84.738281 44.132812 85.550781 44.394531 86.3125 C 44.65625 87.074219 45.242188 87.644531 46.007812 87.875 L 55.476562 90.761719 L 59.90625 85.003906 L 56.15625 77.175781 C 56.078125 77.011719 55.925781 76.980469 55.867188 76.972656 C 55.808594 76.964844 55.65625 76.964844 55.542969 77.105469 L 53.582031 79.578125 L 50.34375 79.578125 Z M 50.351562 79.574219 "/>
<path style=" stroke:none;fill-rule:nonzero;fill:rgb(34.117647%,59.607843%,96.862745%);fill-opacity:1;" d="M 49.863281 79.199219 L 51.304688 77.078125 C 51.664062 76.554688 52.441406 76.585938 52.75 77.136719 L 53.921875 79.199219 "/>
<path style=" stroke:none;fill-rule:nonzero;fill:rgb(34.117647%,59.607843%,96.862745%);fill-opacity:1;" d="M 50.175781 79.410156 L 49.550781 78.984375 L 50.992188 76.863281 C 51.234375 76.511719 51.632812 76.308594 52.058594 76.328125 C 52.488281 76.34375 52.871094 76.582031 53.078125 76.949219 L 54.246094 79.011719 L 53.589844 79.386719 L 52.421875 77.324219 C 52.339844 77.175781 52.195312 77.085938 52.027344 77.082031 C 51.859375 77.074219 51.707031 77.148438 51.613281 77.289062 L 50.171875 79.410156 Z M 50.175781 79.410156 "/>
<path style=" stroke:none;fill-rule:nonzero;fill:rgb(34.117647%,59.607843%,96.862745%);fill-opacity:1;" d="M 48.53125 84.832031 C 47.9375 84.832031 47.457031 84.257812 47.457031 83.554688 L 48.210938 83.554688 C 48.210938 83.851562 48.378906 84.074219 48.535156 84.074219 C 48.6875 84.074219 48.855469 83.851562 48.855469 83.554688 L 49.609375 83.554688 C 49.609375 84.257812 49.128906 84.832031 48.535156 84.832031 Z M 48.53125 84.832031 "/>
<path style=" stroke:none;fill-rule:nonzero;fill:rgb(56.862745%,90.196078%,94.117647%);fill-opacity:1;" d="M 45.429688 87.992188 C 46.265625 87.992188 46.945312 87.3125 46.945312 86.472656 C 46.945312 85.632812 46.265625 84.953125 45.429688 84.953125 C 44.59375 84.953125 43.917969 85.632812 43.917969 86.472656 C 43.917969 87.3125 44.59375 87.992188 45.429688 87.992188 Z M 45.429688 87.992188 "/>
<path style=" stroke:none;fill-rule:nonzero;fill:rgb(56.862745%,90.196078%,94.117647%);fill-opacity:1;" d="M 53.578125 79.589844 L 54.78125 78.078125 C 54.988281 77.820312 55.398438 77.886719 55.511719 78.195312 L 56.027344 79.589844 Z M 53.578125 79.589844 "/>
<path style=" stroke:none;fill-rule:nonzero;fill:rgb(34.117647%,59.607843%,96.862745%);fill-opacity:1;" d="M 45.292969 84.691406 L 43.917969 84.691406 L 43.917969 85.449219 L 45.292969 85.449219 Z M 45.292969 84.691406 "/>
<path style=" stroke:none;fill-rule:nonzero;fill:rgb(34.117647%,59.607843%,96.862745%);fill-opacity:1;" d="M 55.761719 91.648438 L 45.785156 88.609375 C 44.78125 88.300781 44.011719 87.554688 43.671875 86.558594 C 43.332031 85.566406 43.488281 84.5 44.089844 83.640625 L 45.84375 81.152344 C 46.878906 79.691406 48.5625 78.816406 50.351562 78.816406 L 53.226562 78.816406 L 54.953125 76.632812 C 55.195312 76.328125 55.570312 76.171875 55.960938 76.214844 C 56.347656 76.257812 56.675781 76.492188 56.847656 76.84375 L 60.804688 85.101562 Z M 50.351562 79.589844 C 48.8125 79.589844 47.367188 80.339844 46.476562 81.601562 L 44.71875 84.089844 C 44.257812 84.742188 44.140625 85.550781 44.398438 86.3125 C 44.65625 87.070312 45.246094 87.636719 46.011719 87.871094 L 55.476562 90.757812 L 59.898438 85.003906 L 56.152344 77.183594 C 56.078125 77.023438 55.929688 76.988281 55.875 76.984375 C 55.816406 76.976562 55.667969 76.976562 55.558594 77.113281 L 53.597656 79.589844 Z M 50.351562 79.589844 "/>
<path style=" stroke:none;fill-rule:nonzero;fill:rgb(100%,100%,100%);fill-opacity:1;" d="M 55.621094 91.199219 L 61.035156 84.160156 L 53.03125 84.160156 C 51.351562 84.160156 49.988281 85.527344 49.988281 87.214844 C 49.988281 88.558594 50.867188 89.75 52.148438 90.136719 L 55.621094 91.195312 Z M 55.621094 91.199219 "/>
<path style=" stroke:none;fill-rule:nonzero;fill:rgb(34.117647%,59.607843%,96.862745%);fill-opacity:1;" d="M 55.757812 91.632812 L 52.035156 90.5 C 50.582031 90.054688 49.605469 88.738281 49.605469 87.214844 C 49.605469 85.324219 51.140625 83.78125 53.027344 83.78125 L 61.800781 83.78125 L 55.757812 91.628906 Z M 53.027344 84.539062 C 51.558594 84.539062 50.359375 85.738281 50.359375 87.214844 C 50.359375 88.402344 51.121094 89.429688 52.253906 89.777344 L 55.480469 90.761719 L 60.265625 84.539062 Z M 53.027344 84.539062 "/>
<path style=" stroke:none;fill-rule:nonzero;fill:rgb(100%,81.960784%,29.803922%);fill-opacity:1;" d="M 44.925781 80.101562 L 43.054688 80.101562 C 42.898438 80.101562 42.757812 80.007812 42.699219 79.863281 C 42.640625 79.71875 42.675781 79.550781 42.785156 79.441406 L 44 78.222656 L 42.914062 78.222656 L 42.914062 77.449219 L 44.929688 77.449219 C 45.085938 77.449219 45.226562 77.546875 45.285156 77.691406 C 45.34375 77.832031 45.308594 78 45.199219 78.113281 L 43.984375 79.328125 L 44.925781 79.328125 Z M 44.925781 80.101562 "/>
<path style=" stroke:none;fill-rule:nonzero;fill:rgb(100%,100%,100%);fill-opacity:1;" d="M 48.835938 77.089844 L 46.96875 77.089844 C 46.8125 77.089844 46.671875 76.996094 46.613281 76.851562 C 46.554688 76.707031 46.585938 76.542969 46.695312 76.429688 L 47.910156 75.210938 L 46.824219 75.210938 L 46.824219 74.441406 L 48.839844 74.441406 C 48.996094 74.441406 49.136719 74.535156 49.195312 74.679688 C 49.253906 74.824219 49.222656 74.988281 49.109375 75.101562 L 47.898438 76.320312 L 48.835938 76.320312 Z M 48.835938 77.089844 "/>
<path style=" stroke:none;fill-rule:nonzero;fill:rgb(100%,100%,100%);fill-opacity:1;" d="M 73.101562 50.585938 L 73.683594 50.820312 C 75.316406 51.476562 76.355469 53.089844 76.277344 54.851562 L 75.84375 59.003906 L 78.925781 60.769531 L 70.371094 72.03125 L 65.824219 62.164062 C 64.75 59.832031 65.183594 57.078125 66.925781 55.191406 L 70.675781 51.132812 C 71.296875 50.464844 72.261719 50.242188 73.105469 50.585938 Z M 73.101562 50.585938 "/>
<path style=" stroke:none;fill-rule:nonzero;fill:rgb(34.117647%,59.607843%,96.862745%);fill-opacity:1;" d="M 70.277344 72.84375 L 65.441406 62.34375 C 64.289062 59.847656 64.75 56.929688 66.613281 54.910156 L 70.363281 50.851562 C 71.09375 50.0625 72.257812 49.796875 73.257812 50.199219 L 73.839844 50.429688 C 75.636719 51.152344 76.785156 52.933594 76.695312 54.875 L 76.695312 54.902344 L 76.289062 58.777344 L 79.546875 60.644531 Z M 72.292969 50.851562 C 71.800781 50.851562 71.320312 51.050781 70.980469 51.421875 L 67.230469 55.476562 C 65.597656 57.246094 65.195312 59.800781 66.203125 61.988281 L 70.457031 71.21875 L 78.304688 60.894531 L 75.398438 59.230469 L 75.863281 54.820312 C 75.929688 53.242188 74.996094 51.792969 73.535156 51.207031 L 72.949219 50.972656 C 72.738281 50.890625 72.515625 50.847656 72.292969 50.847656 Z M 72.292969 50.851562 "/>
<path style=" stroke:none;fill-rule:nonzero;fill:rgb(34.117647%,59.607843%,96.862745%);fill-opacity:1;" d="M 70.25 57.789062 C 69.789062 57.789062 69.324219 57.652344 68.925781 57.359375 C 68.429688 57.003906 68.101562 56.476562 68.003906 55.875 C 67.90625 55.273438 68.046875 54.667969 68.402344 54.167969 L 70.65625 51.011719 C 71.414062 49.957031 72.558594 49.757812 73.878906 50.449219 L 73.492188 51.195312 C 72.535156 50.691406 71.851562 50.789062 71.339844 51.503906 L 69.085938 54.660156 C 68.859375 54.972656 68.769531 55.355469 68.832031 55.738281 C 68.894531 56.117188 69.105469 56.453125 69.417969 56.675781 C 70.0625 57.140625 70.964844 56.988281 71.429688 56.34375 L 72.953125 54.207031 L 73.636719 54.699219 L 72.113281 56.832031 C 71.667969 57.453125 70.964844 57.785156 70.253906 57.785156 Z M 70.25 57.789062 "/>
<path style=" stroke:none;fill-rule:nonzero;fill:rgb(100%,81.960784%,29.803922%);fill-opacity:1;" d="M 70.039062 56.871094 C 70.589844 56.871094 71.039062 56.425781 71.039062 55.871094 C 71.039062 55.316406 70.589844 54.867188 70.039062 54.867188 C 69.488281 54.867188 69.042969 55.316406 69.042969 55.871094 C 69.042969 56.425781 69.488281 56.871094 70.039062 56.871094 Z M 70.039062 56.871094 "/>
<path style=" stroke:none;fill-rule:nonzero;fill:rgb(100%,100%,100%);fill-opacity:1;" d="M 67.910156 46.605469 L 67.90625 46.601562 C 67.261719 45.800781 66.089844 45.679688 65.292969 46.328125 L 62.28125 48.773438 C 61.484375 49.421875 61.363281 50.597656 62.007812 51.398438 L 62.011719 51.402344 C 62.65625 52.203125 63.828125 52.324219 64.628906 51.675781 L 67.636719 49.230469 C 68.433594 48.578125 68.554688 47.40625 67.910156 46.605469 Z M 67.910156 46.605469 "/>
<path style=" stroke:none;fill-rule:nonzero;fill:rgb(34.117647%,59.607843%,96.862745%);fill-opacity:1;" d="M 63.460938 52.511719 C 63.378906 52.511719 63.300781 52.507812 63.21875 52.5 C 62.609375 52.4375 62.066406 52.140625 61.683594 51.664062 C 60.890625 50.6875 61.042969 49.242188 62.019531 48.445312 L 65.027344 46 C 65.5 45.617188 66.09375 45.4375 66.703125 45.503906 C 67.308594 45.566406 67.855469 45.863281 68.234375 46.339844 C 69.027344 47.316406 68.878906 48.761719 67.898438 49.554688 L 64.890625 52 C 64.480469 52.335938 63.980469 52.511719 63.460938 52.511719 Z M 66.460938 46.332031 C 66.132812 46.332031 65.816406 46.445312 65.558594 46.65625 L 62.550781 49.101562 C 61.933594 49.601562 61.839844 50.515625 62.335938 51.136719 C 62.578125 51.4375 62.925781 51.625 63.304688 51.664062 C 63.6875 51.703125 64.066406 51.59375 64.363281 51.351562 L 67.371094 48.90625 C 67.988281 48.40625 68.082031 47.492188 67.582031 46.871094 C 67.34375 46.566406 66.996094 46.382812 66.613281 46.34375 C 66.5625 46.335938 66.511719 46.335938 66.460938 46.335938 Z M 66.460938 46.332031 "/>
<path style=" stroke:none;fill-rule:nonzero;fill:rgb(100%,81.960784%,29.803922%);fill-opacity:1;" d="M 63.148438 51.617188 C 63.699219 51.617188 64.148438 51.167969 64.148438 50.613281 C 64.148438 50.058594 63.699219 49.613281 63.148438 49.613281 C 62.597656 49.613281 62.152344 50.058594 62.152344 50.613281 C 62.152344 51.167969 62.597656 51.617188 63.148438 51.617188 Z M 63.148438 51.617188 "/>
<path style=" stroke:none;fill-rule:nonzero;fill:rgb(100%,100%,100%);fill-opacity:1;" d="M 70.707031 48.332031 C 69.871094 47.730469 68.710938 47.921875 68.109375 48.757812 L 65.851562 51.917969 C 65.253906 52.753906 65.445312 53.917969 66.28125 54.519531 L 66.285156 54.523438 C 67.117188 55.121094 68.28125 54.929688 68.878906 54.09375 L 71.136719 50.9375 C 71.734375 50.097656 71.542969 48.933594 70.707031 48.332031 Z M 70.707031 48.332031 "/>
<path style=" stroke:none;fill-rule:nonzero;fill:rgb(34.117647%,59.607843%,96.862745%);fill-opacity:1;" d="M 67.367188 55.292969 C 66.90625 55.292969 66.445312 55.152344 66.042969 54.863281 C 65.023438 54.125 64.789062 52.695312 65.519531 51.671875 L 67.773438 48.515625 C 68.128906 48.019531 68.652344 47.691406 69.253906 47.59375 C 69.855469 47.496094 70.457031 47.636719 70.953125 47.992188 C 71.449219 48.347656 71.777344 48.875 71.875 49.476562 C 71.972656 50.082031 71.832031 50.6875 71.476562 51.183594 L 69.222656 54.339844 C 68.777344 54.960938 68.074219 55.292969 67.363281 55.292969 Z M 66.53125 54.183594 C 67.175781 54.648438 68.078125 54.496094 68.542969 53.847656 L 70.796875 50.691406 C 71.023438 50.378906 71.109375 49.996094 71.046875 49.617188 C 70.984375 49.234375 70.777344 48.898438 70.464844 48.675781 C 70.152344 48.449219 69.769531 48.363281 69.390625 48.425781 C 69.011719 48.488281 68.675781 48.695312 68.453125 49.011719 L 66.199219 52.164062 C 65.976562 52.480469 65.886719 52.863281 65.949219 53.242188 C 66.011719 53.621094 66.21875 53.960938 66.53125 54.183594 Z M 66.53125 54.183594 "/>
<path style=" stroke:none;fill-rule:nonzero;fill:rgb(100%,81.960784%,29.803922%);fill-opacity:1;" d="M 67.160156 54.429688 C 67.710938 54.429688 68.15625 53.980469 68.15625 53.429688 C 68.15625 52.875 67.710938 52.425781 67.160156 52.425781 C 66.609375 52.425781 66.160156 52.875 66.160156 53.429688 C 66.160156 53.980469 66.609375 54.429688 67.160156 54.429688 Z M 67.160156 54.429688 "/>
<path style=" stroke:none;fill-rule:nonzero;fill:rgb(34.117647%,59.607843%,96.862745%);fill-opacity:1;" d="M 63.132812 53.90625 L 61.464844 58.304688 L 53.402344 58.304688 L 51.734375 53.90625 C 51.496094 53.277344 51.582031 52.574219 51.960938 52.023438 C 52.339844 51.46875 52.96875 51.136719 53.636719 51.136719 L 61.226562 51.136719 C 61.898438 51.136719 62.523438 51.46875 62.90625 52.023438 C 63.285156 52.574219 63.371094 53.277344 63.132812 53.90625 Z M 63.132812 53.90625 "/>
<path style=" stroke:none;fill-rule:nonzero;fill:rgb(100%,100%,100%);fill-opacity:1;" d="M 54.457031 55.03125 C 53.917969 55.03125 53.476562 54.585938 53.476562 54.042969 C 53.476562 53.5 53.917969 53.058594 54.457031 53.058594 C 55 53.058594 55.441406 53.5 55.441406 54.042969 C 55.441406 54.585938 55 55.03125 54.457031 55.03125 Z M 54.457031 53.675781 C 54.257812 53.675781 54.089844 53.839844 54.089844 54.042969 C 54.089844 54.25 54.253906 54.410156 54.457031 54.410156 C 54.664062 54.410156 54.824219 54.246094 54.824219 54.042969 C 54.824219 53.839844 54.660156 53.675781 54.457031 53.675781 Z M 54.457031 53.675781 "/>
<path style=" stroke:none;fill-rule:nonzero;fill:rgb(100%,100%,100%);fill-opacity:1;" d="M 57.449219 49.957031 C 57.238281 49.957031 57.066406 49.78125 57.066406 49.570312 L 57.066406 45.914062 C 57.066406 45.699219 57.238281 45.527344 57.449219 45.527344 C 57.660156 45.527344 57.835938 45.699219 57.835938 45.914062 L 57.835938 49.570312 C 57.835938 49.78125 57.660156 49.957031 57.449219 49.957031 Z M 57.449219 49.957031 "/>
<path style=" stroke:none;fill-rule:nonzero;fill:rgb(100%,100%,100%);fill-opacity:1;" d="M 54.769531 49.957031 C 54.605469 49.957031 54.453125 49.851562 54.402344 49.6875 L 53.492188 46.886719 C 53.425781 46.683594 53.539062 46.464844 53.742188 46.398438 C 53.941406 46.332031 54.160156 46.445312 54.226562 46.648438 L 55.136719 49.449219 C 55.203125 49.652344 55.089844 49.871094 54.890625 49.9375 C 54.851562 49.949219 54.8125 49.957031 54.769531 49.957031 Z M 54.769531 49.957031 "/>
<path style=" stroke:none;fill-rule:nonzero;fill:rgb(100%,100%,100%);fill-opacity:1;" d="M 25.054688 61.804688 C 34.277344 59.421875 52.457031 54.722656 52.457031 54.722656 L 53.296875 56.945312 C 53.519531 57.53125 54.078125 57.917969 54.707031 57.917969 L 60.023438 57.917969 C 60.730469 57.917969 61.363281 57.480469 61.617188 56.820312 L 63.246094 52.523438 L 63.449219 52.523438 C 64.945312 52.523438 66.15625 53.742188 66.15625 55.242188 L 66.15625 55.285156 L 66.417969 55.285156 C 67.5 55.285156 68.382812 56.167969 68.382812 57.253906 L 68.382812 58.066406 C 69.242188 58.066406 69.917969 58.800781 69.851562 59.65625 C 69.808594 60.222656 69.601562 60.765625 69.25 61.210938 L 65.753906 65.675781 C 64.640625 67.089844 62.949219 67.925781 61.148438 67.941406 L 52.472656 68.015625 L 33.773438 80.417969 C 32.089844 81.53125 30.117188 82.128906 28.101562 82.128906 L 27.34375 82.128906 C 20.324219 82.128906 15.445312 75.125 17.859375 68.511719 L 17.933594 68.304688 C 19.117188 65.066406 21.769531 62.652344 25.046875 61.808594 Z M 25.054688 61.804688 "/>
<path style=" stroke:none;fill-rule:nonzero;fill:rgb(34.117647%,59.607843%,96.862745%);fill-opacity:1;" d="M 28.105469 82.546875 L 27.347656 82.546875 C 23.863281 82.546875 20.71875 80.902344 18.722656 78.035156 C 16.726562 75.171875 16.269531 71.644531 17.46875 68.359375 L 17.542969 68.15625 C 18.765625 64.804688 21.53125 62.277344 24.945312 61.394531 L 52.710938 54.21875 L 53.683594 56.789062 C 53.84375 57.210938 54.253906 57.492188 54.703125 57.492188 L 60.019531 57.492188 C 60.550781 57.492188 61.03125 57.160156 61.21875 56.664062 L 62.949219 52.101562 L 63.445312 52.101562 C 65.046875 52.101562 66.367188 53.308594 66.550781 54.863281 C 67.804688 54.933594 68.800781 55.976562 68.800781 57.25 L 68.800781 57.6875 C 69.167969 57.773438 69.507812 57.964844 69.769531 58.25 C 70.125 58.636719 70.308594 59.160156 70.269531 59.683594 C 70.21875 60.335938 69.980469 60.949219 69.578125 61.464844 L 66.082031 65.929688 C 64.886719 67.457031 63.085938 68.339844 61.152344 68.359375 L 52.597656 68.429688 L 34.003906 80.761719 C 32.246094 81.929688 30.203125 82.542969 28.101562 82.542969 Z M 25.15625 62.210938 C 22.011719 63.023438 19.460938 65.355469 18.332031 68.445312 L 18.257812 68.652344 C 17.15625 71.671875 17.574219 74.917969 19.414062 77.554688 C 21.25 80.195312 24.144531 81.707031 27.347656 81.707031 L 28.105469 81.707031 C 30.042969 81.707031 31.925781 81.136719 33.546875 80.0625 L 52.347656 67.59375 L 61.148438 67.519531 C 62.828125 67.507812 64.390625 66.738281 65.425781 65.414062 L 68.925781 60.949219 C 69.222656 60.566406 69.402344 60.105469 69.4375 59.621094 C 69.460938 59.324219 69.359375 59.039062 69.160156 58.824219 C 68.957031 58.605469 68.683594 58.484375 68.386719 58.484375 L 67.96875 58.484375 L 67.96875 57.253906 C 67.96875 56.398438 67.277344 55.699219 66.421875 55.699219 L 65.738281 55.699219 L 65.738281 55.234375 C 65.738281 54 64.757812 52.984375 63.535156 52.941406 L 62.011719 56.964844 C 61.699219 57.785156 60.90625 58.335938 60.027344 58.335938 L 54.710938 58.335938 C 53.914062 58.335938 53.1875 57.835938 52.910156 57.089844 L 52.199219 55.21875 L 25.160156 62.207031 Z M 25.15625 62.210938 "/>
<path style=" stroke:none;fill-rule:nonzero;fill:rgb(34.117647%,59.607843%,96.862745%);fill-opacity:1;" d="M 65.785156 55.105469 L 63.667969 59.535156 L 64.425781 59.898438 L 66.542969 55.46875 Z M 65.785156 55.105469 "/>
<path style=" stroke:none;fill-rule:nonzero;fill:rgb(34.117647%,59.607843%,96.862745%);fill-opacity:1;" d="M 67.992188 57.738281 L 65.875 62.171875 L 66.632812 62.535156 L 68.75 58.105469 Z M 67.992188 57.738281 "/>
<path style=" stroke:none;fill-rule:nonzero;fill:rgb(100%,100%,100%);fill-opacity:1;" d="M 68.691406 38.328125 C 66.96875 41.675781 62.605469 44.050781 57.488281 44.050781 C 52.375 44.050781 47.902344 41.617188 46.226562 38.207031 C 47.667969 37.621094 49.121094 37.125 50.578125 36.726562 C 51.601562 36.445312 52.332031 35.539062 52.398438 34.480469 L 52.691406 29.847656 L 61.523438 29.847656 L 61.816406 34.425781 C 61.882812 35.511719 62.652344 36.429688 63.703125 36.691406 C 65.375 37.101562 67.042969 37.65625 68.691406 38.328125 Z M 68.691406 38.328125 "/>
<path style=" stroke:none;fill-rule:nonzero;fill:rgb(34.117647%,59.607843%,96.862745%);fill-opacity:1;" d="M 57.492188 44.472656 C 52.320312 44.472656 47.644531 42.03125 45.851562 38.398438 C 45.800781 38.292969 45.792969 38.171875 45.835938 38.0625 C 45.878906 37.949219 45.960938 37.863281 46.070312 37.820312 C 47.527344 37.230469 49.011719 36.726562 50.46875 36.324219 C 51.316406 36.089844 51.925781 35.335938 51.980469 34.453125 L 52.277344 29.824219 C 52.289062 29.601562 52.472656 29.429688 52.691406 29.429688 L 61.523438 29.429688 C 61.746094 29.429688 61.929688 29.601562 61.941406 29.824219 L 62.234375 34.398438 C 62.292969 35.304688 62.921875 36.0625 63.804688 36.28125 C 65.472656 36.691406 67.171875 37.253906 68.851562 37.941406 C 68.960938 37.984375 69.046875 38.074219 69.085938 38.183594 C 69.125 38.292969 69.121094 38.414062 69.066406 38.519531 C 68.171875 40.265625 66.609375 41.746094 64.558594 42.816406 C 62.480469 43.902344 60.039062 44.46875 57.492188 44.46875 Z M 46.816406 38.429688 C 48.613281 41.558594 52.828125 43.632812 57.492188 43.632812 C 62.15625 43.632812 66.269531 41.601562 68.097656 38.542969 C 66.601562 37.949219 65.09375 37.464844 63.609375 37.097656 C 62.371094 36.792969 61.480469 35.726562 61.402344 34.453125 L 61.132812 30.269531 L 53.089844 30.269531 L 52.816406 34.507812 C 52.738281 35.75 51.882812 36.804688 50.691406 37.132812 C 49.40625 37.488281 48.105469 37.921875 46.816406 38.429688 Z M 46.816406 38.429688 "/>
<path style=" stroke:none;fill-rule:nonzero;fill:rgb(100%,100%,100%);fill-opacity:1;" d="M 64.253906 29.089844 C 63.808594 30.277344 62.734375 30.972656 61.855469 30.640625 C 61.730469 30.59375 61.617188 30.527344 61.515625 30.449219 L 61.46875 30.992188 C 61.273438 33.265625 59.378906 35.011719 57.101562 35.011719 C 54.824219 35.011719 52.929688 33.265625 52.730469 30.992188 L 52.691406 30.527344 C 52.621094 30.570312 52.546875 30.609375 52.464844 30.636719 C 51.582031 30.96875 50.511719 30.273438 50.066406 29.085938 C 49.625 27.898438 49.976562 26.667969 50.855469 26.335938 C 51.347656 26.152344 51.890625 26.285156 52.355469 26.640625 L 52.441406 25.027344 C 52.476562 24.332031 53.050781 23.789062 53.742188 23.789062 L 60.449219 23.789062 C 61.144531 23.789062 61.71875 24.335938 61.75 25.035156 L 61.832031 26.75 C 62.324219 26.3125 62.929688 26.136719 63.460938 26.335938 C 64.34375 26.667969 64.695312 27.902344 64.253906 29.085938 Z M 64.253906 29.089844 "/>
<path style=" stroke:none;fill-rule:nonzero;fill:rgb(34.117647%,59.607843%,96.862745%);fill-opacity:1;" d="M 57.097656 35.4375 C 54.613281 35.4375 52.574219 33.582031 52.316406 31.117188 C 51.84375 31.203125 51.339844 31.09375 50.871094 30.789062 C 50.339844 30.449219 49.914062 29.894531 49.667969 29.238281 C 49.425781 28.578125 49.382812 27.882812 49.558594 27.277344 C 49.742188 26.625 50.152344 26.152344 50.707031 25.945312 C 51.109375 25.792969 51.546875 25.800781 51.972656 25.953125 L 52.019531 25.003906 C 52.070312 24.085938 52.824219 23.367188 53.742188 23.367188 L 60.445312 23.367188 C 61.363281 23.367188 62.121094 24.089844 62.164062 25.015625 L 62.210938 26.007812 C 62.671875 25.804688 63.164062 25.777344 63.601562 25.945312 C 64.699219 26.355469 65.164062 27.832031 64.636719 29.238281 C 64.394531 29.894531 63.964844 30.449219 63.4375 30.789062 C 62.929688 31.117188 62.378906 31.222656 61.871094 31.089844 C 61.628906 33.570312 59.582031 35.4375 57.089844 35.4375 Z M 53.050781 29.808594 L 53.148438 30.953125 C 53.328125 33.03125 55.023438 34.589844 57.097656 34.589844 C 59.171875 34.589844 60.871094 33.027344 61.046875 30.953125 L 61.164062 29.636719 L 61.773438 30.113281 C 61.839844 30.167969 61.917969 30.210938 62 30.246094 C 62.296875 30.355469 62.652344 30.296875 62.988281 30.078125 C 63.367188 29.832031 63.675781 29.429688 63.859375 28.9375 C 64.214844 27.984375 63.96875 26.976562 63.316406 26.730469 C 62.949219 26.589844 62.5 26.714844 62.109375 27.0625 L 61.457031 27.640625 L 61.332031 25.054688 C 61.308594 24.578125 60.921875 24.207031 60.449219 24.207031 L 53.742188 24.207031 C 53.273438 24.207031 52.886719 24.578125 52.859375 25.050781 L 52.734375 27.460938 L 52.101562 26.976562 C 51.734375 26.695312 51.335938 26.609375 51.003906 26.734375 C 50.703125 26.84375 50.476562 27.121094 50.367188 27.507812 C 50.242188 27.941406 50.277344 28.449219 50.457031 28.941406 C 50.640625 29.433594 50.949219 29.839844 51.328125 30.082031 C 51.667969 30.300781 52.019531 30.359375 52.316406 30.246094 C 52.371094 30.226562 52.421875 30.203125 52.472656 30.171875 L 53.050781 29.8125 Z M 53.050781 29.808594 "/>
<path style=" stroke:none;fill-rule:nonzero;fill:rgb(100%,81.960784%,29.803922%);fill-opacity:1;" d="M 74.910156 12.796875 C 74.910156 13.933594 73.992188 14.855469 72.859375 14.855469 L 72.78125 14.855469 L 67.164062 14.742188 C 67.121094 14.742188 67.074219 14.742188 67.027344 14.742188 C 64.5625 14.742188 62.304688 16.066406 61.085938 18.175781 C 60.859375 18.5625 60.445312 18.796875 59.996094 18.796875 L 59.859375 18.796875 C 59.289062 18.796875 58.789062 18.410156 58.640625 17.859375 C 58.351562 16.761719 58.210938 15.664062 58.210938 14.59375 C 58.210938 9.871094 60.875 5.5625 64.96875 3.417969 C 64.898438 2.769531 64.347656 2.265625 63.683594 2.265625 L 63.683594 1.425781 C 64.679688 1.425781 65.519531 2.113281 65.75 3.042969 C 66.605469 2.667969 67.515625 2.386719 68.46875 2.207031 C 68.890625 2.089844 69.335938 2.027344 69.796875 2.027344 C 72.535156 2.027344 74.769531 4.148438 74.90625 6.898438 C 74.976562 8.332031 74.457031 9.644531 73.570312 10.613281 C 72.726562 11.40625 71.59375 11.890625 70.351562 11.890625 L 70.351562 12.664062 C 71.800781 12.664062 73.125 12.09375 74.109375 11.167969 C 74.597656 11.542969 74.910156 12.136719 74.910156 12.800781 Z M 74.910156 12.796875 "/>
<path style=" stroke:none;fill-rule:nonzero;fill:rgb(34.117647%,59.607843%,96.862745%);fill-opacity:1;" d="M 59.59375 21.378906 C 58.710938 21.378906 58.039062 20.925781 58.039062 20.324219 C 58.039062 19.722656 58.707031 19.265625 59.59375 19.265625 C 60.480469 19.265625 61.144531 19.722656 61.144531 20.324219 C 61.144531 20.925781 60.480469 21.378906 59.59375 21.378906 Z M 59.59375 20.023438 C 59.078125 20.023438 58.792969 20.246094 58.792969 20.324219 C 58.792969 20.398438 59.078125 20.625 59.59375 20.625 C 60.109375 20.625 60.394531 20.398438 60.394531 20.324219 C 60.394531 20.246094 60.109375 20.023438 59.59375 20.023438 Z M 59.59375 20.023438 "/>
<path style=" stroke:none;fill-rule:nonzero;fill:rgb(100%,81.960784%,29.803922%);fill-opacity:1;" d="M 60.636719 22.246094 C 61.855469 22.621094 62.601562 23.84375 62.378906 25.101562 L 62.15625 26.390625 C 62.089844 26.777344 61.617188 26.929688 61.34375 26.648438 C 60.820312 26.113281 60.035156 25.277344 59.152344 24.253906 C 58.191406 25.605469 55.738281 26.742188 52.804688 26.433594 C 49.660156 26.105469 47.125 24.261719 47.125 22.488281 C 47.125 20.710938 49.03125 19.039062 52.613281 20.003906 L 60.640625 22.242188 Z M 60.636719 22.246094 "/>
<path style=" stroke:none;fill-rule:nonzero;fill:rgb(34.117647%,59.607843%,96.862745%);fill-opacity:1;" d="M 61.457031 28.039062 L 60.671875 27.742188 C 60.914062 27.085938 61.34375 26.53125 61.871094 26.191406 C 62.4375 25.824219 63.054688 25.738281 63.605469 25.945312 L 63.3125 26.734375 C 63.015625 26.625 62.664062 26.683594 62.324219 26.902344 C 61.945312 27.148438 61.636719 27.550781 61.453125 28.042969 Z M 61.457031 28.039062 "/>
<path style=" stroke:none;fill-rule:nonzero;fill:rgb(34.117647%,59.607843%,96.862745%);fill-opacity:1;" d="M 52.859375 28.039062 C 52.675781 27.546875 52.367188 27.140625 51.988281 26.898438 C 51.648438 26.679688 51.300781 26.621094 51 26.734375 L 50.707031 25.945312 C 51.261719 25.738281 51.878906 25.824219 52.441406 26.1875 C 52.96875 26.53125 53.398438 27.082031 53.644531 27.742188 L 52.855469 28.035156 Z M 52.859375 28.039062 "/>
<path style=" stroke:none;fill-rule:nonzero;fill:rgb(66.27451%,81.568627%,100%);fill-opacity:1;" d="M 54.910156 30.859375 C 54.910156 31.539062 54.355469 32.09375 53.679688 32.09375 C 53.570312 32.09375 53.464844 32.082031 53.363281 32.050781 C 53.230469 31.707031 53.148438 31.339844 53.113281 30.96875 L 53.015625 29.835938 C 53.203125 29.722656 53.445312 29.625 53.679688 29.625 C 54.355469 29.625 54.910156 30.179688 54.910156 30.859375 Z M 54.910156 30.859375 "/>
<path style=" stroke:none;fill-rule:nonzero;fill:rgb(66.27451%,81.568627%,100%);fill-opacity:1;" d="M 61.191406 29.707031 L 61.082031 30.960938 C 61.046875 31.351562 60.957031 31.730469 60.816406 32.089844 C 60.789062 32.089844 60.765625 32.089844 60.738281 32.089844 C 60.058594 32.089844 59.507812 31.539062 59.507812 30.855469 C 59.507812 30.175781 60.058594 29.621094 60.738281 29.621094 C 60.890625 29.621094 61.054688 29.65625 61.1875 29.703125 Z M 61.191406 29.707031 "/>
<path style=" stroke:none;fill-rule:nonzero;fill:rgb(34.117647%,59.607843%,96.862745%);fill-opacity:1;" d="M 57.3125 31.0625 L 56.410156 31.0625 C 56.296875 31.0625 56.195312 31.015625 56.125 30.925781 C 56.058594 30.835938 56.035156 30.726562 56.058594 30.617188 L 56.753906 27.722656 C 56.800781 27.53125 56.996094 27.414062 57.1875 27.460938 C 57.382812 27.503906 57.5 27.703125 57.453125 27.894531 L 56.863281 30.34375 L 57.308594 30.34375 C 57.507812 30.34375 57.667969 30.503906 57.667969 30.703125 C 57.667969 30.902344 57.507812 31.0625 57.308594 31.0625 Z M 57.3125 31.0625 "/>
<path style=" stroke:none;fill-rule:nonzero;fill:rgb(34.117647%,59.607843%,96.862745%);fill-opacity:1;" d="M 57.535156 32.273438 C 57.449219 32.273438 57.363281 32.265625 57.277344 32.246094 C 57.082031 32.207031 56.957031 32.019531 56.996094 31.820312 C 57.035156 31.625 57.226562 31.5 57.421875 31.539062 C 57.726562 31.601562 58.027344 31.402344 58.089844 31.09375 C 58.128906 30.898438 58.316406 30.773438 58.511719 30.8125 C 58.710938 30.851562 58.832031 31.042969 58.792969 31.238281 C 58.726562 31.578125 58.53125 31.867188 58.246094 32.058594 C 58.035156 32.199219 57.785156 32.273438 57.539062 32.273438 Z M 57.535156 32.273438 "/>
<path style=" stroke:none;fill-rule:nonzero;fill:rgb(34.117647%,59.607843%,96.862745%);fill-opacity:1;" d="M 55.222656 29.519531 C 55.433594 29.519531 55.605469 29.34375 55.605469 29.132812 C 55.605469 28.917969 55.433594 28.746094 55.222656 28.746094 C 55.007812 28.746094 54.835938 28.917969 54.835938 29.132812 C 54.835938 29.34375 55.007812 29.519531 55.222656 29.519531 Z M 55.222656 29.519531 "/>
<path style=" stroke:none;fill-rule:nonzero;fill:rgb(34.117647%,59.607843%,96.862745%);fill-opacity:1;" d="M 58.683594 29.519531 C 58.894531 29.519531 59.066406 29.34375 59.066406 29.132812 C 59.066406 28.917969 58.894531 28.746094 58.683594 28.746094 C 58.46875 28.746094 58.296875 28.917969 58.296875 29.132812 C 58.296875 29.34375 58.46875 29.519531 58.683594 29.519531 Z M 58.683594 29.519531 "/>
<path style=" stroke:none;fill-rule:nonzero;fill:rgb(100%,81.960784%,29.803922%);fill-opacity:1;" d="M 25.53125 21.902344 L 25.527344 21.890625 C 25.371094 21.582031 24.855469 21.527344 24.367188 21.769531 C 24.855469 21.527344 25.125 21.082031 24.976562 20.773438 L 24.96875 20.761719 C 24.816406 20.453125 24.296875 20.398438 23.808594 20.640625 C 24.296875 20.398438 24.566406 19.953125 24.417969 19.644531 L 24.410156 19.632812 C 24.257812 19.324219 23.738281 19.269531 23.253906 19.511719 C 23.738281 19.269531 24.007812 18.824219 23.859375 18.511719 L 23.851562 18.503906 C 23.730469 18.261719 23.386719 18.179688 23.007812 18.269531 L 22.535156 17.316406 C 22.257812 16.753906 22.320312 16.085938 22.699219 15.589844 C 24.203125 13.640625 24.558594 10.925781 23.394531 8.570312 C 23.292969 8.355469 23.175781 8.148438 23.050781 7.953125 C 23.007812 7.886719 22.960938 7.828125 22.917969 7.765625 C 22.832031 7.640625 22.746094 7.511719 22.652344 7.390625 C 22.597656 7.320312 22.535156 7.253906 22.476562 7.183594 C 22.386719 7.078125 22.300781 6.976562 22.203125 6.878906 C 22.136719 6.8125 22.066406 6.75 21.996094 6.679688 C 21.902344 6.59375 21.808594 6.503906 21.710938 6.421875 C 21.636719 6.359375 21.558594 6.300781 21.480469 6.242188 C 21.382812 6.167969 21.285156 6.089844 21.179688 6.023438 C 21.097656 5.96875 21.011719 5.914062 20.925781 5.863281 C 20.820312 5.800781 20.71875 5.738281 20.613281 5.679688 C 20.523438 5.628906 20.433594 5.585938 20.34375 5.542969 C 20.234375 5.488281 20.128906 5.441406 20.019531 5.394531 C 19.925781 5.355469 19.828125 5.320312 19.730469 5.28125 C 19.621094 5.242188 19.511719 5.203125 19.402344 5.171875 C 19.304688 5.140625 19.203125 5.113281 19.101562 5.085938 C 18.992188 5.058594 18.878906 5.035156 18.761719 5.011719 C 18.660156 4.992188 18.558594 4.972656 18.453125 4.957031 C 18.339844 4.9375 18.226562 4.925781 18.109375 4.914062 C 18.007812 4.902344 17.898438 4.894531 17.792969 4.886719 C 17.679688 4.878906 17.566406 4.878906 17.453125 4.878906 C 17.34375 4.878906 17.234375 4.878906 17.128906 4.886719 C 17.015625 4.894531 16.898438 4.90625 16.785156 4.917969 C 16.679688 4.925781 16.566406 4.9375 16.460938 4.957031 C 16.34375 4.972656 16.230469 5 16.117188 5.023438 C 16.007812 5.046875 15.902344 5.066406 15.792969 5.097656 C 15.679688 5.125 15.566406 5.164062 15.453125 5.203125 C 15.347656 5.238281 15.238281 5.265625 15.136719 5.308594 C 15.019531 5.355469 14.902344 5.410156 14.785156 5.460938 C 14.6875 5.503906 14.585938 5.542969 14.492188 5.589844 L 14.484375 5.589844 C 14.277344 5.703125 14.066406 5.816406 13.867188 5.949219 C 11.355469 7.566406 10.226562 10.765625 11.175781 13.605469 C 12.113281 16.402344 14.609375 18.070312 17.253906 18.160156 C 17.851562 18.179688 18.394531 18.53125 18.660156 19.070312 L 19.480469 20.726562 L 21.472656 19.734375 L 23.414062 23.660156 L 24.9375 22.902344 C 25.421875 22.660156 25.691406 22.214844 25.542969 21.90625 Z M 25.53125 21.902344 "/>
<path style=" stroke:none;fill-rule:nonzero;fill:rgb(100%,100%,100%);fill-opacity:1;" d="M 19.753906 12.898438 C 19.699219 13.222656 19.585938 13.703125 19.339844 13.804688 C 19.21875 13.859375 19.085938 13.792969 18.976562 13.703125 C 17.929688 12.851562 18.414062 13.386719 18.027344 14.039062 C 17.800781 14.414062 17.527344 14.375 17.25 14.269531 C 16.996094 14.191406 16.996094 14.375 17.027344 14.445312 L 20.71875 20.070312 L 22.007812 19.433594 L 19.96875 12.863281 C 19.949219 12.761719 19.808594 12.757812 19.753906 12.898438 Z M 21.714844 19.128906 L 20.671875 19.648438 L 17.277344 14.429688 C 17.277344 14.429688 17.785156 14.632812 18.085938 14.203125 C 18.316406 13.886719 18.269531 13.464844 18.355469 13.433594 C 18.4375 13.402344 18.601562 13.601562 19.015625 13.890625 C 19.621094 14.3125 19.847656 13.179688 19.847656 13.179688 L 21.714844 19.132812 Z M 21.714844 19.128906 "/>
<path style=" stroke:none;fill-rule:nonzero;fill:rgb(100%,100%,100%);fill-opacity:1;" d="M 20.683594 20.199219 L 16.941406 14.5 C 16.898438 14.414062 16.898438 14.296875 16.964844 14.21875 C 17.011719 14.167969 17.105469 14.113281 17.28125 14.171875 C 17.566406 14.285156 17.761719 14.285156 17.941406 13.988281 C 18.058594 13.789062 18.085938 13.601562 18.109375 13.464844 C 18.132812 13.328125 18.152344 13.214844 18.257812 13.171875 C 18.382812 13.121094 18.523438 13.203125 19.035156 13.625 C 19.113281 13.683594 19.214844 13.746094 19.296875 13.710938 C 19.445312 13.648438 19.574219 13.347656 19.652344 12.878906 L 19.660156 12.859375 C 19.710938 12.734375 19.816406 12.679688 19.898438 12.6875 C 19.984375 12.695312 20.046875 12.753906 20.066406 12.839844 L 22.125 19.480469 L 20.683594 20.195312 Z M 20.644531 19.769531 L 20.753906 19.9375 L 21.878906 19.378906 L 21.820312 19.1875 L 20.644531 19.773438 Z M 17.492188 14.574219 L 20.703125 19.515625 L 21.589844 19.074219 L 19.847656 13.523438 C 19.765625 13.726562 19.628906 13.96875 19.425781 14.050781 C 19.273438 14.109375 19.117188 14.085938 18.953125 13.96875 C 18.78125 13.847656 18.648438 13.742188 18.550781 13.664062 C 18.5 13.621094 18.441406 13.574219 18.402344 13.546875 C 18.398438 13.574219 18.394531 13.605469 18.386719 13.640625 C 18.363281 13.804688 18.320312 14.046875 18.164062 14.257812 C 17.976562 14.523438 17.703125 14.582031 17.492188 14.574219 Z M 17.113281 14.355469 C 17.113281 14.355469 17.113281 14.386719 17.117188 14.394531 L 19.28125 17.695312 L 17.113281 14.351562 Z M 19.867188 12.898438 L 20.183594 13.921875 L 19.867188 12.894531 Z M 19.867188 12.898438 "/>
<path style=" stroke:none;fill-rule:nonzero;fill:rgb(100%,100%,100%);fill-opacity:1;" d="M 14.804688 9.847656 C 15.195312 10.632812 14.875 11.582031 14.089844 11.972656 C 13.308594 12.363281 12.359375 12.042969 11.96875 11.257812 C 11.582031 10.472656 11.902344 9.519531 12.683594 9.128906 C 13.46875 8.738281 14.417969 9.058594 14.804688 9.847656 Z M 14.804688 9.847656 "/>
<path style=" stroke:none;fill-rule:nonzero;fill:rgb(51.372549%,71.764706%,100%);fill-opacity:1;" d="M 23.253906 19.511719 L 20.144531 21.058594 C 19.660156 21.300781 19.140625 21.25 18.988281 20.9375 L 18.980469 20.929688 C 18.828125 20.621094 19.097656 20.171875 19.585938 19.929688 L 22.695312 18.382812 C 23.179688 18.140625 23.699219 18.191406 23.851562 18.503906 L 23.859375 18.511719 C 24.011719 18.820312 23.742188 19.269531 23.253906 19.511719 Z M 23.253906 19.511719 "/>
<path style=" stroke:none;fill-rule:nonzero;fill:rgb(51.372549%,71.764706%,100%);fill-opacity:1;" d="M 23.8125 20.640625 L 20.703125 22.1875 C 20.21875 22.429688 19.699219 22.378906 19.546875 22.066406 L 19.539062 22.058594 C 19.386719 21.75 19.65625 21.300781 20.144531 21.058594 L 23.253906 19.511719 C 23.738281 19.269531 24.257812 19.320312 24.410156 19.632812 L 24.417969 19.644531 C 24.570312 19.949219 24.300781 20.398438 23.8125 20.640625 Z M 23.8125 20.640625 "/>
<path style=" stroke:none;fill-rule:nonzero;fill:rgb(51.372549%,71.764706%,100%);fill-opacity:1;" d="M 24.371094 21.769531 L 21.261719 23.320312 C 20.777344 23.5625 20.257812 23.507812 20.105469 23.195312 L 20.097656 23.1875 C 19.945312 22.878906 20.214844 22.429688 20.699219 22.1875 L 23.808594 20.640625 C 24.296875 20.398438 24.816406 20.449219 24.96875 20.761719 L 24.976562 20.773438 C 25.128906 21.078125 24.855469 21.527344 24.371094 21.769531 Z M 24.371094 21.769531 "/>
<path style=" stroke:none;fill-rule:nonzero;fill:rgb(51.372549%,71.764706%,100%);fill-opacity:1;" d="M 24.929688 22.898438 L 21.820312 24.449219 C 21.332031 24.691406 20.816406 24.636719 20.660156 24.328125 L 20.65625 24.316406 C 20.5 24.007812 20.773438 23.5625 21.257812 23.320312 L 24.367188 21.769531 C 24.855469 21.527344 25.371094 21.582031 25.527344 21.890625 L 25.53125 21.902344 C 25.6875 22.207031 25.414062 22.65625 24.929688 22.898438 Z M 24.929688 22.898438 "/>
<path style=" stroke:none;fill-rule:nonzero;fill:rgb(51.372549%,71.764706%,100%);fill-opacity:1;" d="M 83.316406 40.972656 L 83.316406 19.6875 C 83.316406 17.960938 84.71875 16.554688 86.441406 16.554688 L 104.207031 16.554688 C 105.929688 16.554688 107.332031 17.960938 107.332031 19.6875 L 107.332031 33.316406 C 107.332031 35.042969 105.929688 36.449219 104.207031 36.449219 L 87.554688 36.449219 L 83.320312 40.96875 Z M 86.441406 17.539062 C 85.257812 17.539062 84.292969 18.503906 84.292969 19.691406 L 84.292969 38.496094 L 87.128906 35.472656 L 104.207031 35.472656 C 105.390625 35.472656 106.351562 34.507812 106.351562 33.316406 L 106.351562 19.6875 C 106.351562 18.5 105.390625 17.535156 104.207031 17.535156 L 86.441406 17.535156 Z M 86.441406 17.539062 "/>
</g>
</svg>
